<?xml version="1.0" encoding="UTF-8"?>
<svg id="Layer_1" data-name="Layer 1" xmlns="http://www.w3.org/2000/svg" version="1.1" viewBox="0 0 32 32">
  <defs>
    <style>
      .cls-1, .cls-2, .cls-3 {
        fill: #000;
      }

      .cls-1, .cls-3 {
        stroke-width: 0px;
      }

      .cls-2 {
        font-family: ArialRoundedMTBold, 'Arial Rounded MT Bold';
        font-size: 18.96px;
      }

      .cls-2, .cls-4 {
        isolation: isolate;
      }

      .cls-4, .cls-3, .cls-5 {
        display: none;
      }
    </style>
  </defs>
  <g>
    <g class="cls-5">
      <g>
        <path class="cls-1" d="M20.05,19.57h-7.21c-.16,0-.3-.13-.3-.3v-6.56c0-.16.13-.3.3-.3h7.21c.16,0,.3.13.3.3v6.56c0,.16-.13.3-.3.3ZM13.13,18.98h6.62v-5.96h-6.62v5.96Z"/>
        <g class="cls-5">
          <path class="cls-1" d="M15.46,15.64s-.1-.01-.14-.04c-.1-.05-.16-.15-.16-.26v-2.62c0-.16.13-.3.3-.3h1.97c.16,0,.3.13.3.3v2.62c0,.11-.06.21-.16.26s-.21.05-.3-.01l-.82-.55-.82.55s-.11.05-.16.05h-.01ZM15.75,13.01v1.77l.52-.35c.1-.07.23-.07.33,0l.52.35v-1.77h-1.37Z"/>
        </g>
      </g>
      <path class="cls-1" d="M20,17.68h-7.2c-.16,0-.3-.13-.3-.3s.13-.3.3-.3h7.2c.16,0,.3.13.3.3s-.13.3-.3.3Z"/>
    </g>
    <path class="cls-3" d="M16.42,24.8c-.16,0-.3-.13-.3-.3s.13-.3.3-.3c4.54,0,8.23-3.69,8.23-8.23,0-.16.13-.3.3-.3s.3.13.3.3c0,2.36-.92,4.57-2.58,6.24s-3.88,2.58-6.24,2.58h0Z"/>
    <path class="cls-3" d="M7.9,16.27c-.16,0-.3-.13-.3-.3,0-2.36.92-4.57,2.58-6.24,1.67-1.67,3.88-2.58,6.24-2.58.16,0,.3.13.3.3s-.13.3-.3.3c-4.54,0-8.23,3.69-8.23,8.23,0,.16-.13.3-.3.3h0Z"/>
    <path class="cls-3" d="M25.6,16.6c-.08,0-.15-.03-.21-.09l-.45-.45-.45.45c-.12.12-.3.12-.42,0s-.12-.3,0-.42l.66-.66c.12-.12.3-.12.42,0l.66.66c.12.12.12.3,0,.42-.06.06-.13.09-.21.09Z"/>
    <path class="cls-3" d="M7.9,16.6c-.08,0-.15-.03-.21-.09l-.66-.66c-.12-.12-.12-.3,0-.42s.3-.12.42,0l.45.45.45-.45c.12-.12.3-.12.42,0s.12.3,0,.42l-.66.66c-.06.06-.13.09-.21.09Z"/>
  </g>
  <path class="cls-1" d="M15.99,32.03c-8.82,0-15.99-7.17-15.99-16S7.17.03,15.99.03s16,7.18,16,16-7.18,16-16,16ZM15.99,1.48C7.98,1.48,1.44,8,1.44,16.03s6.52,14.55,14.55,14.55,14.55-6.52,14.55-14.55S24.03,1.48,15.99,1.48Z"/>
  <g class="cls-4">
    <text class="cls-2" transform="translate(13.43 22.73)"><tspan x="0" y="0">i</tspan></text>
  </g>
  <path class="cls-1" d="M26.89,14.31c0-1.51-.53-2.98-1.48-4.16.32-1.35.22-2.76-.29-4.05-.1-.25-.31-.44-.56-.52-.36-.12-1.73-.36-4.52,1.45-1.2-.32-2.44-.47-3.68-.44-1.24-.02-2.48.13-3.68.44-2.86-1.85-4.35-1.55-4.65-1.46-.26.08-.46.28-.56.53-.51,1.28-.62,2.69-.3,4.04-.98,1.17-1.51,2.66-1.48,4.19,0,5.71,3.27,7.43,6.26,8.04-.15.38-.26.77-.31,1.17,0,.04,0,.09,0,.13v1.58c-2.73.23-3.31-1.37-3.37-1.55-.01-.04-.03-.08-.05-.12-.53-1.07-1.45-1.9-2.58-2.3-.47-.16-.99.1-1.14.57s.1.99.57,1.14c.62.23,1.15.67,1.47,1.25.36,1.17,1.84,3.02,5.09,2.82l.03,3.18c0,.5.4.9.9.9s.9-.4.9-.9l-.03-6.51c.07-.53.3-1.02.66-1.41.36-.34.38-.91.04-1.27-.15-.16-.34-.26-.56-.28-3.15-.37-6.06-1.4-6.06-6.49-.04-1.24.44-2.44,1.32-3.31.24-.26.32-.63.21-.96-.3-.88-.32-1.84-.06-2.74,1.11.25,2.15.74,3.05,1.43.23.16.53.2.79.11,1.15-.35,2.34-.51,3.54-.48,1.2-.03,2.39.13,3.54.48.27.09.56.05.79-.11.87-.67,1.86-1.15,2.92-1.42.26.91.24,1.87-.07,2.76-.1.3-.04.64.18.88.85.91,1.34,2.11,1.36,3.36,0,5.07-3.06,6.13-6.06,6.49-.49.05-.85.5-.79.99.03.25.16.48.36.62.32.24.69.92.69,2.06l.03,5.78c0,.5.4.9.9.9s.9-.4.9-.9l-.03-5.78c0-.72-.12-1.43-.39-2.1,2.43-.52,6.17-2.11,6.17-8.05Z"/>
</svg>