<?xml version="1.0" encoding="UTF-8"?>
<svg id="Layer_1" data-name="Layer 1" xmlns="http://www.w3.org/2000/svg" version="1.1" viewBox="0 0 32 32">
  <defs>
    <style>
      .cls-1, .cls-2 {
        stroke-width: 0px;
      }

      .cls-1, .cls-2, .cls-3 {
        fill: #000;
      }

      .cls-2, .cls-4 {
        display: none;
      }

      .cls-3 {
        font-family: ArialRoundedMTBold, 'Arial Rounded MT Bold';
        font-size: 18.96px;
      }
    </style>
  </defs>
  <g>
    <g class="cls-4">
      <g>
        <path class="cls-1" d="M20.05,19.57h-7.21c-.16,0-.3-.13-.3-.3v-6.56c0-.16.13-.3.3-.3h7.21c.16,0,.3.13.3.3v6.56c0,.16-.13.3-.3.3ZM13.13,18.98h6.62v-5.96h-6.62v5.96Z"/>
        <g class="cls-4">
          <path class="cls-1" d="M15.46,15.64s-.1-.01-.14-.04c-.1-.05-.16-.15-.16-.26v-2.62c0-.16.13-.3.3-.3h1.97c.16,0,.3.13.3.3v2.62c0,.11-.06.21-.16.26s-.21.05-.3-.01l-.82-.55-.82.55s-.11.05-.16.05h-.01ZM15.75,13.01v1.77l.52-.35c.1-.07.23-.07.33,0l.52.35v-1.77h-1.37Z"/>
        </g>
      </g>
      <path class="cls-1" d="M20,17.68h-7.2c-.16,0-.3-.13-.3-.3s.13-.3.3-.3h7.2c.16,0,.3.13.3.3s-.13.3-.3.3Z"/>
    </g>
    <path class="cls-2" d="M16.42,24.8c-.16,0-.3-.13-.3-.3s.13-.3.3-.3c4.54,0,8.23-3.69,8.23-8.23,0-.16.13-.3.3-.3s.3.13.3.3c0,2.36-.92,4.57-2.58,6.24s-3.88,2.58-6.24,2.58h0Z"/>
    <path class="cls-2" d="M7.9,16.27c-.16,0-.3-.13-.3-.3,0-2.36.92-4.57,2.58-6.24,1.67-1.67,3.88-2.58,6.24-2.58.16,0,.3.13.3.3s-.13.3-.3.3c-4.54,0-8.23,3.69-8.23,8.23,0,.16-.13.3-.3.3h0Z"/>
    <path class="cls-2" d="M25.6,16.6c-.08,0-.15-.03-.21-.09l-.45-.45-.45.45c-.12.12-.3.12-.42,0s-.12-.3,0-.42l.66-.66c.12-.12.3-.12.42,0l.66.66c.12.12.12.3,0,.42-.06.06-.13.09-.21.09Z"/>
    <path class="cls-2" d="M7.9,16.6c-.08,0-.15-.03-.21-.09l-.66-.66c-.12-.12-.12-.3,0-.42s.3-.12.42,0l.45.45.45-.45c.12-.12.3-.12.42,0s.12.3,0,.42l-.66.66c-.06.06-.13.09-.21.09Z"/>
  </g>
  <path class="cls-1" d="M15.99,32.03C7.17,32.03,0,24.86,0,16.03S7.17.03,15.99.03s16,7.18,16,16-7.18,16-16,16ZM15.99,1.48C7.98,1.48,1.44,8,1.44,16.03s6.52,14.55,14.55,14.55,14.55-6.52,14.55-14.55S24.03,1.48,15.99,1.48Z"/>
  <text class="cls-3" transform="translate(13.43 22.73)"><tspan x="0" y="0">i</tspan></text>
</svg>