<?xml version="1.0" encoding="UTF-8"?>
<svg id="Layer_1" data-name="Layer 1" xmlns="http://www.w3.org/2000/svg" version="1.1" viewBox="0 0 32 32">
  <defs>
    <style>
      .cls-1 {
        fill: #000;
        stroke-width: 0px;
      }

      .cls-2 {
        display: none;
      }
    </style>
  </defs>
  <g>
    <g>
      <g>
        <g>
          <path class="cls-1" d="M21.32,21.03h-10.5c-.24,0-.43-.19-.43-.43v-9.54c0-.24.19-.43.43-.43h10.5c.24,0,.43.19.43.43v9.54c0,.24-.19.43-.43.43ZM11.26,20.16h9.63v-8.68h-9.63v8.68Z"/>
          <g class="cls-2">
            <path class="cls-1" d="M14.64,15.3c-.07,0-.14-.02-.2-.05-.14-.08-.23-.22-.23-.38v-3.82c0-.24.19-.43.43-.43h2.86c.24,0,.43.19.43.43v3.82c0,.16-.09.31-.23.38-.14.08-.31.07-.44-.02l-1.19-.79-1.19.79c-.07.05-.16.07-.24.07ZM15.08,11.49v2.58l.76-.51c.15-.1.33-.1.48,0l.76.51v-2.58h-2Z"/>
          </g>
        </g>
        <path class="cls-1" d="M21.26,18.28h-10.47c-.24,0-.43-.19-.43-.43s.19-.43.43-.43h10.47c.24,0,.43.19.43.43s-.19.43-.43.43Z"/>
      </g>
      <path class="cls-1" d="M16.05,28.63c-.24,0-.43-.19-.43-.43s.19-.43.43-.43c6.6,0,11.97-5.37,11.97-11.97,0-.24.19-.43.43-.43s.43.19.43.43c0,3.43-1.34,6.65-3.76,9.08-2.42,2.42-5.65,3.76-9.08,3.76Z"/>
      <path class="cls-1" d="M3.64,16.23c-.24,0-.43-.19-.43-.43,0-3.43,1.34-6.65,3.76-9.08,2.42-2.42,5.65-3.76,9.08-3.76.24,0,.43.19.43.43s-.19.43-.43.43c-6.6,0-11.97,5.37-11.97,11.97,0,.24-.19.43-.43.43Z"/>
      <path class="cls-1" d="M29.41,16.7c-.11,0-.22-.04-.31-.13l-.65-.65-.65.65c-.17.17-.44.17-.61,0-.17-.17-.17-.44,0-.61l.95-.95c.17-.17.44-.17.61,0l.95.95c.17.17.17.44,0,.61-.08.08-.19.13-.31.13Z"/>
      <path class="cls-1" d="M3.64,16.7c-.11,0-.22-.04-.31-.13l-.95-.95c-.17-.17-.17-.44,0-.61.17-.17.44-.17.61,0l.65.65.65-.65c.17-.17.44-.17.61,0,.17.17.17.44,0,.61l-.95.95c-.08.08-.19.13-.31.13Z"/>
    </g>
    <path class="cls-1" d="M16.05,25.3c-5.24,0-9.5-4.26-9.5-9.5s4.26-9.5,9.5-9.5,9.5,4.26,9.5,9.5-4.26,9.5-9.5,9.5ZM16.05,7.16c-4.76,0-8.64,3.87-8.64,8.64s3.87,8.64,8.64,8.64,8.64-3.87,8.64-8.64-3.87-8.64-8.64-8.64Z"/>
  </g>
  <path class="cls-1" d="M15.99,31.94C7.17,31.94,0,24.76,0,15.94S7.17-.06,15.99-.06s16,7.18,16,16-7.18,16-16,16ZM15.99,1.39C7.98,1.39,1.44,7.9,1.44,15.94s6.52,14.55,14.55,14.55,14.55-6.52,14.55-14.55S24.03,1.39,15.99,1.39Z"/>
</svg>